<?xml version="1.0" ?><!DOCTYPE svg  PUBLIC '-//W3C//DTD SVG 1.1//EN'  'http://www.w3.org/Graphics/SVG/1.1/DTD/svg11.dtd'><svg id="Layer_1" style="enable-background:new 0 0 1600 1200;" version="1.1" viewBox="0 0 1600 1200" xml:space="preserve" xmlns="http://www.w3.org/2000/svg" xmlns:vectornator="http://vectornator.io" xmlns:xlink="http://www.w3.org/1999/xlink"><style type="text/css">
	.st0{fill:#8197E5;}
	.st1{fill:#A97653;}
	.st2{fill:#2552C2;}
	.st3{fill:#EFB940;}
	.st4{fill:#FEFFFF;}
	.st5{fill:#2E2543;}
</style><g><g id="Layer_4"><g><path class="st0" d="M642.5,901.6l36.9-57.5l24.8,152l252.5,24.9l75.5,1.3c0,0-44.3-292.6-76-363.8      C924.5,587.3,733,632.2,733,632.2s-43.7,0.4-77.5,21.6c-33.8,21.2-69.5,121-69.5,121L642.5,901.6z"/></g><g><path class="st1" d="M896.6,876.1c0,0-8.8,15.2-20.6,29.5c-11.8,14.3-26.6,27.6-26.6,27.6c-45.7,50.2-100.7-26.3-124.1-51.6      c-23.5-25.3-96.1-147.5-96.1-147.5s-27.9-25.1-35.5-35.5c-7.6-10.4-0.7-26.9-0.7-26.9l-16.9-34.4c-1.2-5.7,2.5-6,6.1-4.4      c3.6,1.6,28.3,31.4,28.3,31.4c-0.8-17.3,13.3-13,13.3-13c1-13,19.1-10.2,19.1-10.2c-0.3-9.7,13.5-2.9,17,1.3      c3.5,4.2,14.3,29.6,20.5,47.7c6.2,18.1,120.3,142.3,120.3,142.3l15-17.5L896.6,876.1z"/></g><g><path d="M1342.6,521H955.9c-8.4,0-15.3-6.9-15.3-15.3V303.6c0-8.4,6.9-15.3,15.3-15.3h386.8c8.4,0,15.3,6.9,15.3,15.3v202.2      C1357.9,514.2,1351.1,521,1342.6,521z M955.9,290.3c-7.3,0-13.3,6-13.3,13.3v202.2c0,7.3,6,13.3,13.3,13.3h386.8      c7.3,0,13.3-6,13.3-13.3V303.6c0-7.3-6-13.3-13.3-13.3H955.9z"/></g><g><path d="M942.8,327.1c-0.6,0-1-0.4-1-1c0-0.6,0.4-1,1-1l413.6-1.7c0,0,0,0,0,0c0.6,0,1,0.4,1,1c0,0.6-0.4,1-1,1L942.8,327.1      C942.8,327.1,942.8,327.1,942.8,327.1z"/></g><g><path d="M1319.9,377.8h-147.2c-8.4,0-15.3-6.9-15.3-15.3v-3.2c0-8.4,6.9-15.3,15.3-15.3h147.2c8.4,0,15.3,6.9,15.3,15.3v3.2      C1335.2,371,1328.3,377.8,1319.9,377.8z M1172.7,346c-7.3,0-13.3,6-13.3,13.3v3.2c0,7.3,6,13.3,13.3,13.3h147.2      c7.3,0,13.3-6,13.3-13.3v-3.2c0-7.3-6-13.3-13.3-13.3H1172.7z"/></g><g><path d="M1316.4,428.5H1173c-8.4,0-15.3-6.9-15.3-15.3v-0.9c0-8.4,6.9-15.3,15.3-15.3h143.4c8.4,0,15.3,6.9,15.3,15.3v0.9      C1331.7,421.7,1324.8,428.5,1316.4,428.5z M1173,399.1c-7.3,0-13.3,6-13.3,13.3v0.9c0,7.3,6,13.3,13.3,13.3h143.4      c7.3,0,13.3-6,13.3-13.3v-0.9c0-7.3-6-13.3-13.3-13.3H1173z"/></g><g><path class="st2" d="M276.9,619.4l-7.7-61.5l57.1,24L276.9,619.4z"/></g><g><path class="st3" d="M682.4,329c10.8-14.2,31.1-17,45.4-6.2c14.2,10.8,17,31.1,6.2,45.4c-10.8,14.2-31.1,17-45.4,6.2      C674.3,363.6,671.6,343.3,682.4,329z"/></g><g><path d="M859.2,359.6c-1.3-1.1-3.3-1.3-5.5-0.4l-5.2,2.1c-3.1,1.2-8.3,1.7-11.5,1.1l-5.5-1.1c-4.8-0.9-7.6,2.5-5.8,7l2.1,5.2      c1.2,3.1,1.7,8.3,1.1,11.6l-1.1,5.5c-0.9,4.8,2.5,7.6,7,5.8l5.2-2.1c3.1-1.2,8.3-1.7,11.6-1.1l5.5,1.1c4.8,0.9,7.6-2.5,5.8-7      l-2.1-5.2c-1.2-3.1-1.8-8.3-1.2-11.5l1.1-5.5C861.2,362.6,860.5,360.7,859.2,359.6z M857.2,362.1c0.5,0.4,0.6,1.2,0.4,2.3      l-1,5.5c-0.7,3.8-0.2,9.7,1.3,13.4l2.1,5.2c0.9,2.2,0.1,3.1-2.2,2.7l-5.5-1.1c-3.8-0.7-9.7-0.2-13.3,1.3l-5.2,2.1      c-2.2,0.9-3.1,0.1-2.7-2.2l1.1-5.5c0.7-3.8,0.1-9.7-1.3-13.4l-2.1-5.2c-0.9-2.2-0.1-3.1,2.2-2.7l5.5,1c3.8,0.7,9.8,0.1,13.4-1.3      l5.2-2.1C856,361.8,856.7,361.7,857.2,362.1z"/></g><g><path d="M685,497.1c-4.5,39.1,3.3,114.6,3.3,114.6l144.9-12.2c32.3-15.7-2.1-109.5-43.1-137.7c-41-28.2-69.7-5.3-69.7-5.3      S689.5,458,685,497.1z"/></g><g><path class="st1" d="M782.4,518.5c3.1-4,11.9-6.9,11.9-6.9c12.2,4.8,11.6,13.8,9.5,24.9c-2.2,11.1-16.3,14.1-16.3,14.1      c3.4,54.3,24.8,70.9,24.8,70.9s-21.7,28.5-50.8,44.2s-45.2-18.2-45.2-18.2c16.5-15.5,4.4-58.8,4.4-58.8      c-11.6-6-22.1-19.9-24.6-56.9c-2.6-37,25-64,25-64C726.3,494,782.4,518.5,782.4,518.5z"/></g><g><path d="M785.1,534c-0.1,0-0.2,0-0.3-0.1c-0.5-0.2-0.8-0.7-0.6-1.3c0.1-0.3,3-8.5,8-14.1c0.4-0.4,1-0.4,1.4-0.1      c0.4,0.4,0.4,1,0.1,1.4c-4.7,5.2-7.5,13.3-7.6,13.4C785.9,533.7,785.5,534,785.1,534z"/></g><g><g><path class="st4" d="M823,500c0,0-25.5,1.2-33.7,2c-7.8,0.8-19.2,21-19.2,21c-47.5,15.8-82.3,2-82.3,2       c-14.7-22.9,2.3-32.6,2.3-32.6l71.7-1.7l58.2-7C823.3,487.5,823,500,823,500z"/></g><g><path d="M716.4,530.1c-8.3,0-15.8-0.4-21.2-1.1c-10.1-1.3-15.6-9-14.8-20.7c0.6-8.4,4.8-17.4,10-17.4c0,0,0,0,0.1,0       c8.1,0.1,60.1,0.4,68.4-0.5c8.2-0.9,60.6-7.9,61.1-8c0.4-0.1,0.8,0.2,1,0.6c3.4,6.9,3.4,16.6,3.4,17c0,0.3-0.1,0.6-0.3,0.7       c-0.2,0.2-0.5,0.3-0.8,0.3c-0.4,0-43.7-4.3-49.4,15.1C770.8,526.6,740.4,530.1,716.4,530.1z M690.5,492.9       c-3.6,0-7.5,7.5-8.1,15.5c-0.3,3.9-0.1,17,13.1,18.6c24.1,3,73.1,0.2,76.6-11.6c5.7-19.3,43.2-17.2,50.4-16.6       c-0.1-2.6-0.6-9.2-2.8-14.4c-6.4,0.9-52.8,7-60.4,7.9C750.8,493.3,698.6,493,690.5,492.9C690.5,492.9,690.5,492.9,690.5,492.9z       "/></g><g><path d="M711.8,502.6c-8.3,0-15.8-0.1-20-0.3c-0.6,0-1-0.5-0.9-1.1c0-0.6,0.5-1,1.1-0.9c13.4,0.7,60.2-0.1,60.7-0.1       c0.5,0,1,0.4,1,1c0,0.6-0.4,1-1,1C752.3,502.2,730,502.6,711.8,502.6z"/></g><g><path d="M771.1,518.3c-2.3,3.5-30.6,9.6-53.7,10.8c-17.1,0.9-30.8-3.5-30.8-3.5c-0.1,29,90.9,4.4,90.6-1.2c-0.3-5.7,3-17,3-17       S775.1,512.2,771.1,518.3z"/></g></g><g><path d="M720.6,588l3.1,19.1c52.5-7.8,60.7-56.3,60.7-56.3C750.1,599.2,720.6,588,720.6,588z"/></g><g><path d="M722.5,555.7c-4.5,0-9.1-1.5-12.6-5.7c-0.4-0.4-0.3-1.1,0.1-1.4c0.4-0.4,1.1-0.3,1.4,0.1c10.3,12.1,30-1.7,30.2-1.8      c0.4-0.3,1.1-0.2,1.4,0.2c0.3,0.5,0.2,1.1-0.2,1.4C742.5,548.7,732.4,555.7,722.5,555.7z"/></g><g><path d="M1134.9,1000.1C1134.9,1000.1,1134.9,1000.1,1134.9,1000.1l-123.4-1.1c-0.6,0-1-0.5-1-1c0-0.5,0.5-1,1-1c0,0,0,0,0,0      l123.4,1.1c0.6,0,1,0.5,1,1C1135.9,999.6,1135.4,1000.1,1134.9,1000.1z"/></g><g><path d="M1124.3,933.6C1124.3,933.6,1124.3,933.6,1124.3,933.6l-131.8-1.5c-0.6,0-1-0.5-1-1c0-0.5,0.5-1,1-1c0,0,0,0,0,0      l131.8,1.5c0.6,0,1,0.5,1,1C1125.3,933.2,1124.8,933.6,1124.3,933.6z"/></g><g><path d="M1091.4,950.2C1091.4,950.2,1091.4,950.2,1091.4,950.2l-73.8-0.5c-0.6,0-1-0.5-1-1c0-0.5,0.5-1,1-1c0,0,0,0,0,0      l73.8,0.5c0.6,0,1,0.5,1,1C1092.4,949.7,1092,950.2,1091.4,950.2z"/></g><g><path class="st0" d="M963.7,398.9h40v91.6h-40V398.9z"/></g><g><path class="st2" d="M1031,352.8h40v137.2h-40V352.8z"/></g><g><path class="st3" d="M1096.8,425.2h40v65.2h-40V425.2z"/></g><g><g><path class="st3" d="M1298.1,536c0-18.9,15.2-34.2,33.9-34.2c18.7,0,33.9,15.3,33.9,34.2c0,18.9-15.2,34.2-33.9,34.2       C1313.3,570.2,1298.1,554.9,1298.1,536z"/></g><g><path class="st3" d="M1298.1,536c0-18.9,15.2-34.2,33.9-34.2c18.7,0,33.9,15.3,33.9,34.2c0,18.9-15.2,34.2-33.9,34.2       C1313.3,570.2,1298.1,554.9,1298.1,536z"/></g><g><path class="st5" d="M1330.7,500.4c-13.8,0.6-26.6,9.3-31.7,23.1c-6.8,18.4,2.5,38.8,20.9,45.6c18.4,6.8,38.8-2.5,45.6-20.9       s-2.5-38.8-20.9-45.6C1340,500.8,1335.3,500.1,1330.7,500.4z M1330.8,502.5c4.3-0.2,8.8,0.5,13.1,2.1       c17.3,6.4,26,25.7,19.6,42.9c-6.4,17.3-25.6,26-42.9,19.6c-17.3-6.4-26.1-25.6-19.7-42.9C1305.8,511.2,1317.8,503,1330.8,502.5       z"/></g><g><path class="st5" d="M1287.9,478.2c-0.9,0.2-1.8,0.5-2.4,1.1c-7.5,6.6,8.6,35.8,35.5,66.1c26.9,30.3,53.9,49.7,61.4,43.1       c5.3-4.7-1-20.4-15.3-40.8c-0.3-0.5-1-0.6-1.5-0.3c-0.5,0.3-0.6,1-0.2,1.5c13.6,19.4,19.7,34.5,15.6,38       c-6,5.3-32.6-13.8-58.4-42.9c-25.8-29.2-41.6-57.8-35.6-63.1c3.8-3.4,18.8,5.2,36.6,21.1c0.4,0.4,1.1,0.3,1.5-0.1       c0.4-0.4,0.3-1.1-0.1-1.5C1308.4,485.7,1294.5,477.1,1287.9,478.2z"/></g></g><g><path class="st3" d="M1028.1,576.9l108.7,37.7l-87,75.3L1028.1,576.9z"/></g><g><path class="st2" d="M926.6,204.3c0-11.2,9.1-20.2,20.2-20.2s20.2,9.1,20.2,20.2c0,11.2-9.1,20.2-20.2,20.2      S926.6,215.5,926.6,204.3z"/></g><g><path class="st4" d="M739.3,687.1c-4.3,0-8.3-0.8-12-2.3c-23.9-9.8-24-47.7-24-49.4c0-0.6,0.4-1,1-1c0,0,0,0,0,0      c0.6,0,1,0.5,1,1c0,0.4,0.1,38.2,22.8,47.5c22.4,9.2,58.3-11.3,106.9-60.9c0.4-0.4,1-0.4,1.4,0c0.4,0.4,0.4,1,0,1.4      C795,665.8,762.4,687.1,739.3,687.1z"/></g><g><path class="st0" d="M1142.7,821.2l58.6-73.4c7.4-9.2,20.8-10.7,30-3.4l1.8,1.5c9.2,7.4,10.7,20.8,3.4,30l-58.6,73.4      c-7.4,9.2-20.8,10.7-30,3.4l-1.8-1.5C1136.9,843.9,1135.4,830.5,1142.7,821.2z"/></g></g><g id="Layer_2_1_"><g><g><path d="M488.6,356.4c-0.1,0-0.1,0-0.2,0c-0.3-0.1-0.5-0.2-0.6-0.4l-76.3-112.9c-0.1-0.2-0.2-0.5-0.2-0.8s0.2-0.5,0.4-0.6       l75.2-50.8c0.2-0.2,0.5-0.2,0.8-0.2c0.3,0.1,0.5,0.2,0.6,0.4l8.8,13.7l12.8-8.4c0.5-0.3,1.1-0.2,1.4,0.3l66.5,98.4       c0.3,0.5,0.2,1.1-0.3,1.4l-88.4,59.7C489,356.3,488.8,356.4,488.6,356.4z M413.7,242.8L488.9,354l86.7-58.6l-65.4-96.7       l-12.8,8.4c-0.2,0.1-0.5,0.2-0.8,0.1c-0.3-0.1-0.5-0.2-0.6-0.4l-8.8-13.7L413.7,242.8z"/></g><g><path d="M510.4,198.2c-0.1,0-0.2,0-0.2,0l-22.8-5.8c-0.5-0.1-0.9-0.7-0.7-1.2c0.1-0.5,0.7-0.9,1.2-0.7l22.8,5.8       c0.5,0.1,0.9,0.7,0.7,1.2C511.3,197.9,510.8,198.2,510.4,198.2z"/></g><g><path d="M442.7,263.4c-0.3,0-0.6-0.2-0.8-0.4c-0.3-0.5-0.2-1.1,0.3-1.4l66.6-45.2c0.5-0.3,1.1-0.2,1.4,0.3       c0.3,0.5,0.2,1.1-0.3,1.4l-66.6,45.2C443.1,263.3,442.9,263.4,442.7,263.4z"/></g><g><path d="M448.8,273.4c-0.3,0-0.6-0.2-0.8-0.4c-0.3-0.5-0.2-1.1,0.3-1.4l57.4-38.6c0.5-0.3,1.1-0.2,1.4,0.3       c0.3,0.5,0.2,1.1-0.3,1.4l-57.4,38.6C449.2,273.3,449,273.4,448.8,273.4z"/></g><g><path d="M455.1,282.4c-0.3,0-0.6-0.2-0.8-0.4c-0.3-0.5-0.2-1.1,0.3-1.4l40.5-27.2c0.5-0.3,1.1-0.2,1.4,0.3       c0.3,0.5,0.2,1.1-0.3,1.4l-40.5,27.2C455.5,282.3,455.3,282.4,455.1,282.4z"/></g></g><g><g><path class="st0" d="M370.9,429.4h153.7l26.7,29.4v200.4H370.9V429.4z"/></g><g><path d="M510.1,470.7c-0.3,0-0.5-0.1-0.7-0.3c-0.2-0.3-0.3-0.7-0.2-1l13.6-39.2c0.2-0.5,0.8-0.8,1.3-0.6       c0.5,0.2,0.8,0.8,0.6,1.3l-13,37.5l38.2-9.3c0.5-0.1,1.1,0.2,1.2,0.7c0.1,0.5-0.2,1.1-0.7,1.2l-40,9.7       C510.2,470.7,510.1,470.7,510.1,470.7z"/></g><g><path d="M395.8,487.6c-0.6,0-1-0.4-1-1c0-0.6,0.4-1,1-1l134.7-0.3c0,0,0,0,0,0c0.6,0,1,0.4,1,1c0,0.6-0.4,1-1,1L395.8,487.6       C395.8,487.6,395.8,487.6,395.8,487.6z"/></g><g><path d="M510.7,507.5C510.7,507.5,510.7,507.5,510.7,507.5L395,507.2c-0.6,0-1-0.5-1-1c0-0.6,0.4-1,1-1c0,0,0,0,0,0l115.7,0.3       c0.6,0,1,0.5,1,1C511.7,507,511.3,507.5,510.7,507.5z"/></g><g><path d="M477,525.9C477,525.9,477,525.9,477,525.9l-81.8-0.3c-0.6,0-1-0.5-1-1c0-0.6,0.4-1,1-1c0,0,0,0,0,0l81.8,0.3       c0.6,0,1,0.5,1,1C478,525.5,477.6,525.9,477,525.9z"/></g></g><g><path d="M901.1,880c-0.2,0-0.4-0.1-0.6-0.2l-90-67.4c-0.4-0.3-0.5-0.9-0.3-1.3c0.2-0.4,23.7-41.8,54.2-92.2      c30.7-50.8,60.9-56.8,62.2-57.1c0.6-0.1,1.1,0.3,1.2,0.8c0.1,0.5-0.3,1.1-0.8,1.2c-0.3,0.1-30.6,6.2-60.8,56.1      c-28.2,46.7-50.4,85.5-53.7,91.4l88.5,66.3c6.7-8.2,66.5-81.9,71.4-118.8c0.1-0.5,0.6-0.9,1.1-0.9c0.5,0.1,0.9,0.6,0.9,1.1      c-5.3,39.4-69.7,117.2-72.5,120.5C901.7,879.9,901.4,880,901.1,880z"/></g><g><path d="M703.1,724.4c-0.3,0-0.6-0.1-0.8-0.4c-4.2-5.4-8.5-10.9-12.7-16.5c-11-14.6-16.9-32.1-21.2-44.8      c-3.1-9.1-5.5-16.2-8.3-18.5c-0.4-0.3-0.5-1-0.1-1.4c0.4-0.4,1-0.5,1.4-0.1c3.3,2.7,5.7,9.7,9,19.4      c4.3,12.6,10.1,29.9,20.9,44.3c4.1,5.5,8.4,11,12.6,16.4c0.3,0.4,0.3,1.1-0.2,1.4C703.6,724.3,703.3,724.4,703.1,724.4z"/></g><g><path d="M806.8,840.6c-0.3,0-0.6-0.1-0.8-0.4c-4.4-5.4-9.5-11.2-15.9-18.2c-0.4-0.4-0.4-1,0.1-1.4c0.4-0.4,1-0.3,1.4,0.1      c6.5,7,11.5,12.8,16,18.3c0.3,0.4,0.3,1.1-0.1,1.4C807.3,840.5,807,840.6,806.8,840.6z"/></g><g><path d="M650,682.7c-0.5,0-1-0.1-1.4-0.3c-6.1-2.9-8.4-26.1-7.6-37.8c0.3-4.2,1.7-6.9,4.2-8c5.9-2.6,15.4,5.2,15.9,5.5      c0.4,0.3,0.5,1,0.1,1.4c-0.3,0.4-1,0.5-1.4,0.1c-2.5-2-9.8-6.9-13.8-5.2c-1.8,0.8-2.8,2.9-3,6.3c-0.9,13.6,2.1,33.8,6.4,35.9      c0.3,0.1,1,0.4,2.2-0.7c3.5-3.3,3.1-11,3-14.8c-0.1-1.7-0.1-2.4,0.1-2.8c0.2-0.5,0.8-0.8,1.3-0.6c0.5,0.2,0.8,0.7,0.6,1.2      c0,0.3,0,1.2,0,2.1c0.2,4.3,0.5,12.4-3.6,16.3C651.9,682.4,650.9,682.7,650,682.7z M656.5,663C656.5,663,656.5,663,656.5,663      C656.5,663,656.5,663,656.5,663z"/></g><g><path d="M641.3,689.1c-1.4,0-3-0.7-4.6-2.2c-7.2-6.5-15.7-26.9-13.5-36.1c1-4.1,2.9-6.9,5.9-8.5c5.4-2.9,12.1-0.4,12.4-0.3      c0.5,0.2,0.8,0.8,0.6,1.3c-0.2,0.5-0.8,0.8-1.3,0.6c-0.1,0-6.1-2.3-10.7,0.2c-2.4,1.3-4.1,3.7-4.9,7.2      c-2,8.4,6.2,28.1,12.9,34.1c1.1,1,2.6,2.1,3.9,1.6c1.3-0.5,2.4-2.6,3-6.2c0.1-0.5,0.6-0.9,1.2-0.8c0.5,0.1,0.9,0.6,0.8,1.2      c-0.8,4.5-2.2,7-4.3,7.7C642.1,689,641.7,689.1,641.3,689.1z"/></g><g><path d="M631.8,697.4c-0.2,0-0.4,0-0.6,0c-9.6-1-21.9-26.9-21.9-35.9c0-3.5,1.2-6.3,3.3-8.4c4.3-4.1,11.1-4,11.4-3.9      c0.6,0,1,0.5,1,1c0,0.6-0.5,1-1,1c-0.1,0-6.3-0.1-10,3.4c-1.8,1.7-2.7,4.1-2.7,7c-0.1,9,12.2,33.1,20.1,33.9      c3.4,0.4,5.2-4.6,6-8.7c0.1-0.5,0.6-0.9,1.2-0.8c0.5,0.1,0.9,0.6,0.8,1.2C637.9,694,635.4,697.4,631.8,697.4z"/></g><g><path d="M618.5,704.4c-0.3,0-0.5-0.1-0.7-0.3l-18.9-19.7c0,0-0.1-0.1-0.1-0.2c-0.1-0.1-7.3-11.7-13.8-23.7      c-11.9-22.1-11.5-26.8-9.8-28.4c1.2-1.1,2.6-1.5,4.3-1.3c10.9,1.5,30.4,33.5,31.3,34.9c0.3,0.5,0.1,1.1-0.3,1.4      s-1.1,0.1-1.4-0.3c-5.5-9.1-21.5-32.8-29.8-34c-1.1-0.1-1.9,0.1-2.6,0.8c-2.7,2.6,10.2,27.7,23.8,49.5l18.8,19.7      c0.4,0.4,0.4,1,0,1.4C619,704.3,618.7,704.4,618.5,704.4z"/></g><g><path d="M631.5,737.3c-0.2,0-0.4-0.1-0.6-0.2c-1.5-1.2-36.3-29.6-40.7-43.4c-4-12.3,0.7-21.9,0.9-22.3c0.2-0.5,0.8-0.7,1.3-0.4      c0.5,0.2,0.7,0.8,0.4,1.3c0,0.1-4.5,9.2-0.8,20.8c4.3,13.2,39.7,42.2,40.1,42.5c0.4,0.3,0.5,1,0.1,1.4      C632.1,737.2,631.8,737.3,631.5,737.3z"/></g><g><path d="M686.6,886.4c-0.5,0-0.9-0.3-1-0.8l-9.6-56.5c-0.1-0.5,0.3-1.1,0.8-1.2c0.5-0.1,1.1,0.3,1.2,0.8l9.6,56.5      c0.1,0.5-0.3,1.1-0.8,1.2C686.8,886.4,686.7,886.4,686.6,886.4z"/></g><g><path d="M1165.5,1021.8h-893c-0.6,0-1-0.4-1-1s0.4-1,1-1h893c0.6,0,1,0.4,1,1S1166.1,1021.8,1165.5,1021.8z"/></g><g><path d="M1151.9,1021.8H974.8c-13.2,0-23.9-10.7-23.9-23.9V993c0-13.2,10.7-23.9,23.9-23.9h177.1c0.6,0,1,0.4,1,1v50.7      C1152.9,1021.3,1152.5,1021.8,1151.9,1021.8z M974.8,971c-12.1,0-21.9,9.8-21.9,21.9v4.9c0,12.1,9.8,21.9,21.9,21.9h176.1V971      H974.8z"/></g><g><path d="M1139.1,970.1C1139.1,970.1,1139.1,970.1,1139.1,970.1l-146.5-0.7c-13.2,0-23.9-10.7-23.9-23.9v-4.9      c0-13.2,10.7-23.9,23.9-23.9l146.5,0.7c0.5,0,1,0.4,1,1v50.7c0,0.3-0.1,0.5-0.3,0.7C1139.6,970,1139.3,970.1,1139.1,970.1z       M992.5,918.7c-12.1,0-21.9,9.8-21.9,21.9v4.9c0,12.1,9.8,21.9,21.9,21.9l145.5,0.7v-48.7L992.5,918.7z"/></g><g><path d="M1137,983.4C1137,983.4,1137,983.4,1137,983.4l-151.6-0.6c-0.6,0-1-0.5-1-1c0-0.6,0.4-1,1-1c0,0,0,0,0,0l151.6,0.6      c0.6,0,1,0.5,1,1C1138,982.9,1137.5,983.4,1137,983.4z"/></g><g><path d="M651.1,681.9c-0.1,0-0.2,0-0.3,0c-0.5-0.1-0.8-0.7-0.7-1.2c0.9-3.4,0.7-6-0.6-7.7c-1.9-2.6-5.6-2.6-5.7-2.6      c-0.6,0-1-0.5-1-1c0-0.6,0.4-1,1-1c0.1,0,4.7,0,7.3,3.4c1.7,2.3,2.1,5.5,1,9.5C652,681.6,651.6,681.9,651.1,681.9z"/></g><g><path d="M641.7,688.4c-0.1,0-0.2,0-0.4-0.1c-0.5-0.2-0.8-0.8-0.6-1.3l0,0c0,0,1.8-5-1.2-9.6c-0.7-1.1-1.5-1.6-2.4-1.7      c-1.9-0.2-3.9,1.6-4.6,2.3c-0.4,0.4-1,0.4-1.4,0c-0.4-0.4-0.4-1,0-1.4c0.1-0.1,3-3.2,6.2-2.9c1.6,0.1,2.9,1,3.9,2.6      c3.6,5.5,1.5,11.2,1.4,11.4C642.5,688.1,642.1,688.4,641.7,688.4z"/></g><g><path d="M632.9,696.3c-0.5,0-0.9-0.3-1-0.8c-0.5-2.7-2.2-10.1-4.4-11.8c-1.9-1.5-6,1.4-7.3,2.6c-0.4,0.4-1,0.3-1.4-0.1      c-0.4-0.4-0.3-1,0.1-1.4c0.6-0.6,6.3-5.4,9.8-2.7c3.2,2.5,4.9,11.9,5.1,13c0.1,0.5-0.3,1.1-0.8,1.2      C633,696.3,633,696.3,632.9,696.3z"/></g><g><g><path class="st3" d="M363.7,435.1c-6.3,16,2.4,7.3,12.1,10.5c9.7,3.1,25.4,11.8,24.9,5.2c-0.5-6.6-2-15.8,4-26.1       c5.9-10.3-0.3-10.9-4.4-10.9c-4.2,0-15.5-0.5-23-6c-7.5-5.4-9.3-1.4-9.3-1.4C367.9,409.1,370,419.1,363.7,435.1z"/></g><g><path class="st3" d="M363.7,435.1c-6.3,16,2.4,7.3,12.1,10.5c9.7,3.1,25.4,11.8,24.9,5.2c-0.5-6.6-2-15.8,4-26.1       c5.9-10.3-0.3-10.9-4.4-10.9c-4.2,0-15.5-0.5-23-6c-7.5-5.4-9.3-1.4-9.3-1.4C367.9,409.1,370,419.1,363.7,435.1z"/></g><g><path class="st5" d="M371.5,402.9c-3.6-0.2-6.2,2.7-5.9,7.4l0.4,7.2c0.2,4.3-1.3,10.9-3.4,14.6l-3.5,6.3c-3,5.5-0.2,10.3,6,9.9       l7.1-0.4c4.2-0.2,10.7,1.4,14.4,3.5l6.2,3.5c5.4,3.1,10.1,0.1,9.8-6.2l-0.4-7.2c-0.2-4.3,1.3-10.9,3.4-14.6l3.5-6.3       c3-5.5,0.2-10.3-6-9.9l-7.1,0.4c-4.2,0.2-10.7-1.3-14.4-3.4l-6.1-3.6C374,403.3,372.6,402.9,371.5,402.9z M370.4,407.2       c0.6-0.4,1.6-0.2,2.9,0.5l6.2,3.5c4.3,2.5,11.6,4.3,16.6,4l7.1-0.4c3-0.2,3.8,1.2,2.3,3.8l-3.5,6.2c-2.4,4.4-4.1,11.8-3.9,16.9       l0.4,7.3c0.2,3-1.1,3.8-3.7,2.3l-6.2-3.5c-4.3-2.5-11.6-4.3-16.6-4l-7.1,0.4c-3,0.2-3.8-1.2-2.3-3.8l3.5-6.2       c2.4-4.4,4.1-11.8,3.9-16.9l-0.4-7.3C369.5,408.5,369.8,407.6,370.4,407.2z"/></g></g><g><g><path class="st3" d="M686.3,1020.9H381.1L316,778.5c-2.3-8.4,3-15.2,11.6-15.2h273.8c8.7,0,17.5,6.8,19.8,15.2L686.3,1020.9z"/></g><g><path class="st3" d="M672.3,995.3H966v24.1H672.3V995.3z"/></g><g><path d="M686.6,1020.5c-0.4,0-0.9-0.3-1-0.7l-6.2-23.7c-0.1-0.5,0.2-1.1,0.7-1.2c0.5-0.1,1.1,0.2,1.2,0.7l6.2,23.7       c0.1,0.5-0.2,1.1-0.7,1.2C686.8,1020.5,686.7,1020.5,686.6,1020.5z"/></g></g></g></g></svg>